HIERARCHY
ROOT Hips
{
	OFFSET 0.000000 0.000000 0.000000
	CHANNELS 6 Xposition Yposition Zposition Zrotation Yrotation Xrotation 
	JOINT LHipJoint
	{
		OFFSET 0.000000 0.000000 0.000000
		CHANNELS 3 Zrotation Yrotation Xrotation
		JOINT LeftUpLeg
		{
			OFFSET 1.363060 -1.794630 0.839290
			CHANNELS 3 Zrotation Yrotation Xrotation
			JOINT LeftLeg
			{
				OFFSET 2.448110 -6.726130 0.000000
				CHANNELS 3 Zrotation Yrotation Xrotation
				JOINT LeftFoot
				{
					OFFSET 2.562200 -7.039590 0.000000
					CHANNELS 3 Zrotation Yrotation Xrotation
					JOINT LeftToeBase
					{
						OFFSET 0.157640 -0.433110 2.322550
						CHANNELS 3 Zrotation Yrotation Xrotation
						End Site
						{
							OFFSET 0.000000 0.000000 0.000000
						}
					}
				}
			}
		}
	}
	JOINT RHipJoint
	{
		OFFSET 0.000000 0.000000 0.000000
		CHANNELS 3 Zrotation Yrotation Xrotation
		JOINT RightUpLeg
		{
			OFFSET -1.305520 -1.794630 0.839290
			CHANNELS 3 Zrotation Yrotation Xrotation
			JOINT RightLeg
			{
				OFFSET -2.542530 -6.985550 0.000000
				CHANNELS 3 Zrotation Yrotation Xrotation
				JOINT RightFoot
				{
					OFFSET -2.568260 -7.056230 0.000000
					CHANNELS 3 Zrotation Yrotation Xrotation
					JOINT RightToeBase
					{
						OFFSET -0.164730 -0.452590 2.363150
						CHANNELS 3 Zrotation Yrotation Xrotation
						End Site
						{
							OFFSET 0.000000 0.000000 0.000000
						}
					}
				}
			}
		}
	}
	JOINT LowerBack
	{
		OFFSET 0.000000 0.000000 0.000000
		CHANNELS 3 Zrotation Yrotation Xrotation
		JOINT Spine
		{
			OFFSET 0.028270 2.035590 -0.193380
			CHANNELS 3 Zrotation Yrotation Xrotation
			JOINT Spine1
			{
				OFFSET 0.056720 2.048850 -0.042750
				CHANNELS 3 Zrotation Yrotation Xrotation
				JOINT Neck
				{
					OFFSET 0.000000 0.000000 0.000000
					CHANNELS 3 Zrotation Yrotation Xrotation
					JOINT Neck1
					{
						OFFSET -0.054170 1.746240 0.172020
						CHANNELS 3 Zrotation Yrotation Xrotation
						JOINT Head
						{
							OFFSET 0.104070 1.761360 -0.123970
							CHANNELS 3 Zrotation Yrotation Xrotation
							End Site
							{
								OFFSET 0.000000 0.000000 0.000000
							}
						}
					}
				}
				JOINT LeftShoulder
				{
					OFFSET 0.000000 0.000000 0.000000
					CHANNELS 3 Zrotation Yrotation Xrotation
					JOINT LeftArm
					{
						OFFSET 3.362410 1.200890 -0.311210
						CHANNELS 3 Zrotation Yrotation Xrotation
						JOINT LeftForeArm
						{
							OFFSET 4.983000 -0.000000 -0.000000
							CHANNELS 3 Zrotation Yrotation Xrotation
							JOINT LeftHand
							{
								OFFSET 3.483560 -0.000000 -0.000000
								CHANNELS 3 Zrotation Yrotation Xrotation
								JOINT LeftFingerBase
								{
									OFFSET 0.000000 0.000000 0.000000
									CHANNELS 3 Zrotation Yrotation Xrotation
									JOINT LeftHandIndex1
									{
										OFFSET 0.715260 -0.000000 -0.000000
										CHANNELS 3 Zrotation Yrotation Xrotation
										End Site
										{
											OFFSET 0.000000 0.000000 0.000000
										}
									}
								}
								JOINT LThumb
								{
									OFFSET 0.000000 0.000000 0.000000
									CHANNELS 3 Zrotation Yrotation Xrotation
									End Site
									{
										OFFSET 0.000000 0.000000 0.000000
									}
								}
							}
						}
					}
				}
				JOINT RightShoulder
				{
					OFFSET 0.000000 0.000000 0.000000
					CHANNELS 3 Zrotation Yrotation Xrotation
					JOINT RightArm
					{
						OFFSET -3.136600 1.374050 -0.404650
						CHANNELS 3 Zrotation Yrotation Xrotation
						JOINT RightForeArm
						{
							OFFSET -5.241900 -0.000000 -0.000000
							CHANNELS 3 Zrotation Yrotation Xrotation
							JOINT RightHand
							{
								OFFSET -3.444170 -0.000000 -0.000000
								CHANNELS 3 Zrotation Yrotation Xrotation
								JOINT RightFingerBase
								{
									OFFSET 0.000000 0.000000 0.000000
									CHANNELS 3 Zrotation Yrotation Xrotation
									JOINT RightHandIndex1
									{
										OFFSET -0.622530 -0.000000 -0.000000
										CHANNELS 3 Zrotation Yrotation Xrotation
										End Site
										{
											OFFSET 0.000000 0.000000 0.000000
										}
									}
								}
								JOINT RThumb
								{
									OFFSET 0.000000 0.000000 0.000000
									CHANNELS 3 Zrotation Yrotation Xrotation
									End Site
									{
										OFFSET 0.000000 0.000000 0.000000
									}
								}
							}
						}
					}
				}
			}
		}
	}
}
MOTION
Frames: 12
Frame Time: 0.008333
0.409784 18.192154 2.522380 1.542027 -3.988110 -0.946410 -3.606899 6.343262 6.643987 -12.207851 -13.902632 1.066413 -1.255433 1.684507 8.037198 -4.508574 17.515855 -3.963860 0.133200 -2.352500 -6.480900 -2.366247 -6.847568 4.081950 17.267674 19.184756 7.522861 0.160550 -1.335253 8.436534 5.833592 -20.530093 -5.943010 -0.103000 2.069600 -5.698100 2.960582 2.159959 -2.892908 -9.102290 2.103961 12.855583 2.533771 1.379213 -8.787189 -6.751455 -3.735969 -9.841283 5.762332 -5.855945 29.673026 2.585700 -2.778900 7.995400 -5.928329 -1.202258 -0.877944 -78.980944 2.180510 4.114642 11.279176 -17.307618 -1.697699 -1.085157 -0.880068 10.750978 29.900724 20.283129 12.229100 -7.125000 0.000000 0.000000 2.266800 54.396400 0.523600 7.668069 0.866202 -0.237679 72.255012 4.488653 50.919267 -119.524910 59.839963 -90.026005 -1.204346 2.031271 -13.199016 -39.882870 6.934815 -3.305000 7.125000 0.000000 0.000000 -9.410900 -24.749200 -4.666800 
0.410654 18.192444 2.523926 1.600598 -4.006846 -0.930512 -3.620506 6.337261 6.641767 -12.266207 -13.891749 1.055476 -1.255898 1.676859 8.026813 -4.515937 17.540609 -3.956878 0.136400 -2.380000 -6.557000 -2.373248 -6.852321 4.087248 17.199348 19.226517 7.481234 0.157954 -1.348331 8.465149 5.829277 -20.519195 -5.962449 -0.102400 2.063400 -5.681000 2.945475 2.198593 -2.989161 -9.202516 2.150870 12.926941 2.555130 1.399921 -8.730174 -6.684269 -3.720109 -9.972789 5.809362 -5.849650 29.644910 2.587500 -2.764100 8.010400 -5.910167 -1.212177 -0.880623 -78.978149 2.158717 4.127038 11.294376 -17.329151 -1.703381 -1.058978 -0.907497 10.927671 29.020447 20.865953 12.113500 -7.125000 0.000000 0.000000 1.154900 54.878100 0.280200 7.665451 0.879826 -0.234629 72.237597 4.697132 50.833074 -119.533138 59.829143 -90.033648 -1.190941 2.047985 -11.955945 -40.005306 7.136131 -3.481500 7.125000 0.000000 0.000000 -9.448700 -24.483800 -4.745100 
0.411523 18.192444 2.523346 1.650368 -4.019350 -0.902713 -3.634659 6.331037 6.636472 -12.302921 -13.893871 1.036920 -1.259267 1.662795 7.995560 -4.512801 17.530968 -3.970527 0.129600 -2.320800 -6.393000 -2.381092 -6.854508 4.086866 17.141779 19.260630 7.427692 0.155534 -1.359768 8.490085 5.829085 -20.519924 -5.969892 -0.100200 2.041700 -5.620900 2.948991 2.226250 -3.027149 -9.311619 2.184169 12.925987 2.567458 1.414803 -8.693081 -6.663691 -3.682887 -9.936212 5.933163 -5.827393 29.448136 2.618900 -2.738200 7.960000 -5.894390 -1.223256 -0.883038 -78.957316 2.151042 4.127695 11.265150 -17.286994 -1.693748 -1.064914 -0.921236 11.001381 29.037496 21.305653 12.353100 -7.125000 0.000000 0.000000 1.074800 55.381800 0.273900 7.670431 0.896872 -0.231283 72.194306 4.928985 50.793715 -119.497995 59.832907 -90.011189 -1.172084 2.067523 -10.888888 -40.252498 7.783567 -4.037300 7.125000 0.000000 0.000000 -9.522900 -23.646600 -4.970100 
0.411137 18.192927 2.522187 1.634468 -4.020635 -0.898278 -3.634988 6.332786 6.636036 -12.274471 -13.904891 1.057770 -1.265302 1.641597 7.928679 -4.514482 17.539327 -3.946924 0.122600 -2.257300 -6.217200 -2.383555 -6.853411 4.080975 17.174163 19.267597 7.407024 0.151003 -1.374765 8.535769 5.829230 -20.521506 -5.983572 -0.103500 2.074300 -5.711200 2.964614 2.229930 -2.978667 -9.321966 2.190122 12.875324 2.547653 1.419870 -8.720993 -6.743177 -3.647671 -9.955906 6.152740 -5.829765 29.390302 2.681100 -2.717400 7.949100 -5.890917 -1.231742 -0.878214 -78.936620 2.175569 3.924499 11.186588 -17.170925 -1.668141 -1.066634 -0.909021 11.307386 28.964914 21.154421 12.237300 -7.125000 0.000000 0.000000 1.029200 55.192100 0.257600 7.678197 0.900506 -0.226545 72.100561 5.121436 50.819641 -119.518846 59.822634 -90.032255 -1.154336 2.085593 -9.887305 -40.371102 8.317103 -4.490500 7.125000 0.000000 0.000000 -9.517100 -22.957000 -5.120000 
0.411330 18.192347 2.523153 1.615657 -4.060653 -0.935161 -3.629695 6.337184 6.647888 -12.268062 -13.868491 1.097065 -1.266188 1.635238 7.913138 -4.510989 17.528330 -3.949904 0.117400 -2.208600 -6.082600 -2.383562 -6.857141 4.085265 17.206003 19.301503 7.450416 0.150560 -1.375784 8.539819 5.827757 -20.514878 -5.963296 -0.108500 2.124100 -5.848800 2.974699 2.243759 -3.015602 -9.291636 2.211745 12.968011 2.516261 1.429307 -8.712426 -6.812088 -3.652262 -10.155915 6.297907 -5.868859 29.504993 2.715700 -2.719300 8.010800 -5.885223 -1.242918 -0.877874 -78.950986 2.176952 3.851696 11.106779 -17.046919 -1.642909 -1.058814 -0.873943 11.134950 28.939803 20.129452 11.686300 -7.125000 0.000000 0.000000 1.231000 54.017100 0.272900 7.671520 0.904676 -0.225158 71.998070 5.346038 50.846940 -119.624434 59.786150 -90.103060 -1.148576 2.090449 -8.815621 -40.515307 8.152280 -4.380000 7.125000 0.000000 0.000000 -9.618300 -23.144200 -5.134000 
0.412779 18.191478 2.523153 1.583137 -4.150179 -0.956235 -3.620003 6.338585 6.655364 -12.260412 -13.790010 1.101225 -1.264684 1.639202 7.928965 -4.501774 17.498243 -4.009195 0.113600 -2.173000 -5.984100 -2.378622 -6.857067 4.083798 17.233751 19.383573 7.495313 0.152009 -1.371315 8.522812 5.828906 -20.515135 -5.912393 -0.108000 2.119400 -5.835800 2.970626 2.260068 -2.997544 -9.202442 2.234858 12.985973 2.490857 1.444486 -8.734152 -6.828544 -3.630917 -10.226922 6.343917 -5.848550 29.499309 2.728000 -2.702500 8.015900 -5.894625 -1.247090 -0.880644 -79.011707 2.248692 4.108441 11.108238 -17.047629 -1.642977 -1.057429 -0.878051 10.565488 29.086486 19.909787 11.642000 -7.125000 0.000000 0.000000 1.441000 53.800400 0.311800 7.660317 0.912688 -0.220715 71.858153 5.552848 50.890327 -119.721777 59.755532 -90.159280 -1.144312 2.089416 -7.772449 -40.855150 8.010931 -4.317400 7.125000 0.000000 0.000000 -9.857000 -23.284000 -5.233000 
0.412779 18.191574 2.519482 1.554260 -4.157070 -0.983158 -3.607336 6.340851 6.653317 -12.242757 -13.798069 1.118949 -1.263558 1.646859 7.946589 -4.502965 17.504019 -4.048370 0.113800 -2.175000 -5.989400 -2.369814 -6.853647 4.079790 17.262188 19.379268 7.526800 0.152315 -1.369851 8.518048 5.835343 -20.536349 -5.913395 -0.106300 2.102500 -5.789000 2.902394 2.246094 -2.859525 -9.073984 2.218335 12.915988 2.503025 1.447063 -8.820425 -6.824135 -3.585287 -10.140870 6.388293 -5.796077 29.347304 2.744800 -2.672300 7.956100 -5.915765 -1.247215 -0.881431 -79.076604 2.306683 4.086834 11.119765 -17.069339 -1.645090 -1.070188 -0.900218 10.951448 29.181561 20.701238 12.108400 -7.125000 0.000000 0.000000 1.378600 54.726600 0.329400 7.650565 0.921737 -0.214156 71.681261 5.755207 50.921685 -119.812059 59.727670 -90.209147 -1.135165 2.091622 -6.842349 -41.244954 8.277713 -4.603700 7.125000 0.000000 0.000000 -10.076800 -22.898100 -5.443900 
0.411717 18.191188 2.514844 1.555668 -4.056333 -1.013129 -3.604539 6.344365 6.653370 -12.233818 -13.914592 1.145050 -1.260057 1.664953 7.993974 -4.512523 17.534169 -4.063790 0.116700 -2.202100 -6.064500 -2.366707 -6.857486 4.090306 17.259628 19.272154 7.531978 0.153696 -1.361861 8.499950 5.841164 -20.553950 -5.920999 -0.109900 2.137100 -5.884800 2.851250 2.221183 -2.829714 -9.049037 2.189523 12.999923 2.523658 1.435138 -8.842154 -6.762513 -3.555988 -10.245983 6.439412 -5.773720 29.309820 2.750300 -2.649700 7.958700 -5.914229 -1.258856 -0.882581 -79.097921 2.218545 3.617055 11.083198 -17.019727 -1.633094 -1.079662 -0.901288 12.313819 28.878403 21.467452 12.356000 -7.125000 0.000000 0.000000 0.855200 55.527400 0.221000 7.638164 0.938212 -0.209451 71.570996 6.076501 50.869457 -119.915808 59.687923 -90.274342 -1.125461 2.100154 -6.002680 -41.455609 8.601639 -4.913100 7.125000 0.000000 0.000000 -10.160700 -22.455600 -5.595300 
0.411910 18.190415 2.513587 1.563039 -4.020762 -1.012012 -3.611253 6.341538 6.651629 -12.235286 -13.967950 1.131825 -1.255202 1.685887 8.054286 -4.513212 17.533646 -4.091594 0.115800 -2.194200 -6.042700 -2.371723 -6.861397 4.096405 17.249690 19.236847 7.532782 0.155623 -1.354454 8.482274 5.830389 -20.518014 -5.909005 -0.111800 2.155500 -5.935600 2.869333 2.227180 -2.885234 -9.119857 2.197536 13.066537 2.520696 1.436304 -8.809657 -6.710912 -3.503508 -10.405351 6.594129 -5.749316 29.340457 2.781700 -2.613100 7.989400 -5.896669 -1.272948 -0.882954 -79.097758 2.200323 3.395636 11.092589 -17.039493 -1.636975 -1.078555 -0.899914 13.154633 28.560353 21.841351 12.385000 -7.125000 0.000000 0.000000 0.394800 55.877400 0.105400 7.637613 0.953105 -0.202186 71.535702 6.388070 50.758120 -120.032293 59.640495 -90.360126 -1.113109 2.117901 -5.246295 -41.408467 9.010213 -5.249900 7.125000 0.000000 0.000000 -10.051300 -21.933000 -5.654900 
0.411330 18.190801 2.510302 1.518420 -4.067351 -1.009995 -3.606432 6.338182 6.645178 -12.187742 -13.945438 1.091224 -1.252018 1.701296 8.089105 -4.509549 17.519536 -4.084184 0.111400 -2.151600 -5.924800 -2.369991 -6.857066 4.087536 17.306893 19.279509 7.545860 0.155487 -1.355715 8.493261 5.813187 -20.463798 -5.917994 -0.105300 2.092300 -5.760900 2.865663 2.241895 -2.790880 -9.067527 2.216085 12.966959 2.501021 1.452834 -8.863192 -6.801817 -3.434956 -10.338886 6.899781 -5.727588 29.184223 2.870200 -2.572700 7.939300 -5.902847 -1.281309 -0.880642 -79.114171 2.276974 3.288842 11.058031 -16.993178 -1.625015 -1.106304 -0.879864 13.467599 29.264966 21.705181 12.669700 -7.125000 0.000000 0.000000 1.233200 55.875900 0.329100 7.644957 0.960856 -0.193915 71.427126 6.656575 50.658963 -120.127936 59.602413 -90.427092 -1.100956 2.131092 -4.534608 -41.437479 9.373695 -5.562900 7.125000 0.000000 0.000000 -10.003300 -21.458500 -5.736600 
0.410074 18.191285 2.504795 1.455158 -4.131235 -1.021302 -3.591378 6.337514 6.643712 -12.123607 -13.910276 1.030813 -1.246694 1.723681 8.146298 -4.507330 17.507065 -4.087985 0.109300 -2.131900 -5.870300 -2.357513 -6.855308 4.085261 17.379320 19.336434 7.564129 0.157212 -1.346759 8.471397 5.822946 -20.490940 -5.878721 -0.102500 2.064200 -5.683000 2.812040 2.254139 -2.692306 -8.889372 2.233026 12.940867 2.473843 1.471654 -8.921029 -6.974275 -3.392590 -10.246969 7.217973 -5.730337 28.945669 2.967800 -2.548900 7.870000 -5.920891 -1.294378 -0.884086 -79.182458 2.313028 3.201772 10.977080 -16.870371 -1.597696 -1.131425 -0.854065 13.268427 30.060622 21.145370 12.773700 -7.125000 0.000000 0.000000 2.273400 55.411700 0.581200 7.636310 0.975704 -0.190655 71.190753 7.018518 50.595632 -120.264117 59.550439 -90.503530 -1.098556 2.127738 -3.944384 -41.739017 9.470421 -5.707700 7.125000 0.000000 0.000000 -10.184800 -21.289300 -5.883700 
0.410750 18.191188 2.502959 1.463703 -4.200613 -1.030046 -3.589882 6.331357 6.644565 -12.146278 -13.862270 0.966549 -1.237013 1.756542 8.252685 -4.500981 17.479865 -4.147736 0.115000 -2.186400 -6.021100 -2.352233 -6.860592 4.094422 17.356406 19.399900 7.606101 0.164874 -1.320605 8.387599 5.839669 -20.540258 -5.832080 -0.104000 2.079400 -5.725200 2.768040 2.277105 -2.757244 -8.829330 2.260476 13.042178 2.462009 1.487519 -8.878779 -7.058889 -3.356753 -10.302806 7.453609 -5.730619 28.868061 3.033000 -2.525400 7.866300 -5.915879 -1.313895 -0.891127 -79.269382 2.317167 3.439880 10.945472 -16.810316 -1.587531 -1.106113 -0.850133 12.284708 29.731118 20.330973 12.172600 -7.125000 0.000000 0.000000 2.072800 54.411300 0.479500 7.621739 0.999672 -0.187997 70.962738 7.418915 50.552497 -120.481773 59.470993 -90.632079 -1.101403 2.120714 -3.508400 -42.094171 9.612218 -5.904200 7.125000 0.000000 0.000000 -10.396200 -21.054100 -6.066200 
